# xmcd CD database file
#
# Track frame offsets:
#	150
#	23721
#	42229
#	60981
#	74057
#	92958
#	104841
#	122481
#	139262
#	158967
#
# Disc length: 2334 seconds
#
# Revision: 0
# Processed by: cddbd v1.5PL3 Copyright (c) Steve Scherf et al.
# Submitted via: CDex 1.51
#
DISCID=8f091c0a
DTITLE=Paolo Conte - PaoloCONTE2
DYEAR=2003
DGENRE=Jazz
TTITLE0=Un gelato al limon
TTITLE1=Dancing
TTITLE2=Lo zio
TTITLE3=la giarrettiera rosa
TTITLE4=Gioco d'azzardo
TTITLE5=Tua cugina prima (tutti a Venezia)
TTITLE6=Sud America
TTITLE7=L'ultima donna
TTITLE8=La ragazza fisarmonica
TTITLE9=Blue haways
EXTD=YEAR: 2003
EXTT0=
EXTT1=
EXTT2=
EXTT3=
EXTT4=
EXTT5=
EXTT6=
EXTT7=
EXTT8=
EXTT9=
PLAYORDER=
